PathFileType	3	(X/Y/Z)	D:\Jess\Healthy\Labelled\HA12\20250414\SRRun02.trc
DataRate	CameraRate	NumFrames	NumMarkers	Units	OrigDataRate	OrigDataStartFrame	OrigNumFrames
250.0	250.0	6	37	mm	250.0	36875	2501
Frame#	Time	C7			T10			CLAV			LSHO			RSHO			LASIS			RASIS			LPSIS			RPSIS			LILCR			RILCR			LGTR			LTHI			LLTHI			LLEP			LMEP			LPSH			LLSH			LDSH			LLMAL			LMMAL			LTOE			L5TH			LHEE			RGTR			RTHI			RLTHI			RLEP			RMEP			RPSH			RLSH			RDSH			RLMAL			RMMAL			RTOE			R5TH			RHEE			
		X1	Y1	Z1	X2	Y2	Z2	X3	Y3	Z3	X4	Y4	Z4	X5	Y5	Z5	X6	Y6	Z6	X7	Y7	Z7	X8	Y8	Z8	X9	Y9	Z9	X10	Y10	Z10	X11	Y11	Z11	X12	Y12	Z12	X13	Y13	Z13	X14	Y14	Z14	X15	Y15	Z15	X16	Y16	Z16	X17	Y17	Z17	X18	Y18	Z18	X19	Y19	Z19	X20	Y20	Z20	X21	Y21	Z21	X22	Y22	Z22	X23	Y23	Z23	X24	Y24	Z24	X25	Y25	Z25	X26	Y26	Z26	X27	Y27	Z27	X28	Y28	Z28	X29	Y29	Z29	X30	Y30	Z30	X31	Y31	Z31	X32	Y32	Z32	X33	Y33	Z33	X34	Y34	Z34	X35	Y35	Z35	X36	Y36	Z36	X37	Y37	Z37	

1876	147.496	1274.857688937972	1462.676521531072	-301.70359326159	1149.975088598022	1193.32955142511	-329.8456493108305	1401.887555662031	1323.835821991334	-284.5918861051369	1360.367401064377	1410.455029628579	-448.900797712136	1321.248918093663	1392.333873170732	-138.070221523803	1313.836145384075	921.8209671346028	-433.990660837855	1310.292772955973	927.1366340538488	-195.2964298537441	1113.783179856675	1006.649020248253	-338.8134448178656	1112.436939660031	1005.648498800373	-300.5237439328953	1269.650625292522	991.1030527470198	-485.0592002596317	1236.119873310179	991.3609159229065	-136.8136431437705	1250.526313911094	788.9579918529871	-493.3033031217047	1307.398324484816	659.4044339718042	-424.5285077981565	1215.025500540936	608.7140385427379	-491.223803169989	1188.449778929225	481.8971699862914	-476.5712955786577	nan	nan	nan	1123.510796716815	384.4027011311397	-438.1811757720308	989.0182624080379	422.5747295261156	-481.882324619592	906.2489332465613	324.6470758025772	-436.2504370944787	803.6892259999036	349.7487858133786	-452.2769154366118	nan	nan	nan	766.4813590186994	190.0534101099763	-453.6860552390123	733.1913652455223	221.8704099661972	-480.7147923038864	775.0170238017347	405.1910967715468	-388.4415940145814	1251.786168672039	828.5855063310872	-125.2802402615103	1393.511476457853	747.4463985997892	-222.820407064674	1314.369005521882	626.2255905692366	-154.2098582295458	1351.808312043753	502.6265167637536	-171.4446711872813	nan	nan	nan	1409.541567619052	405.474311809371	-237.8684148889559	1346.929448893877	318.8461776279296	-172.3197581309281	1385.131768916985	184.6250485921161	-266.5037303751049	1331.327109238728	108.0409781574429	-230.5909547437267	nan	nan	nan	1489.393203210075	73.21910218498729	-244.4327474673007	1456.724393461484	37.77831898739559	-202.9615942770572	1260.122221209717	78.00458133185195	-287.8013993644173	
1877	147.5	1274.531572317855	1459.864015342579	-300.6947965587813	1149.43465238373	1190.067685632381	-329.3063554484904	1401.923439730369	1320.36500047617	-284.7841600748525	1359.508739939911	1407.588607622693	-448.9863534913508	1322.173154062227	1388.142584286556	-137.304962789343	1313.575601487752	917.2818930405532	-434.0323064612553	1309.947818163613	924.0740835441665	-194.9525710433396	1113.093264775517	1002.652430388752	-339.5515663500551	1111.768337223437	1001.837694474049	-301.3188431960941	1269.247175483743	986.0242672864464	-485.7387952291412	1234.837393551391	987.9958362550088	-136.8052407496112	1252.608889463343	785.366809918296	-493.2547947037704	1310.739345315865	657.0891553274765	-425.6263790130987	1219.092112828118	605.3805081544124	-491.8983803862178	1194.419632895257	478.7936701617629	-477.476175466725	nan	nan	nan	1129.383227451691	382.218523816	-438.8786817843756	995.2702683264578	421.6285712897498	-482.7823482824817	911.5320484953583	325.1052921035458	-436.6628964708971	809.2973753161697	351.3676317024945	-452.677708033603	nan	nan	nan	771.4692039498691	191.9410566818326	-454.8042523991364	738.4208278197655	223.9661672161103	-481.865940901836	780.4730866084686	406.8097425734206	-388.7155910845268	1252.327658087415	826.0310587308275	-125.1862792353231	1394.979633899494	746.2495346931194	-222.030328554007	1314.493193539641	624.04813829556	-154.4099718661259	1352.686107288186	500.7319874894224	-171.5141737964338	nan	nan	nan	1408.649212893248	402.9764888071977	-238.3959154391703	1344.56352748951	317.4253630383171	-172.9751479461321	1378.345154156152	182.6022465802134	-267.5433966630712	1322.59051690515	107.5580599270038	-231.4532934929268	nan	nan	nan	1479.834819777273	70.23184685347714	-245.304583955636	1446.14269066888	36.24640957705925	-203.1042542621545	1249.95044108001	78.8852364166441	-288.3562673539163	
1878	147.504	1274.25182657119	1457.198886708587	-299.6799770118536	1148.832525048432	1186.995865038133	-328.800517967056	1401.914576544996	1317.039136452422	-285.0374309457232	1358.604950434034	1404.837607314717	-449.1226569414072	1323.157907225812	1384.039514560336	-136.599008146074	1313.269259891252	912.7674816069601	-434.0384374714278	1309.516235514152	921.223350763114	-194.5732482559984	1112.383249339797	998.864575304387	-340.3351833268227	1111.084944586677	998.2487778910693	-302.1600666449521	1268.829535756841	980.9797373944599	-486.4145707735794	1233.450691773212	984.9006975316555	-136.8072865561121	1254.728954308458	781.9730047219666	-493.1761959080854	1314.136777234775	655.0270492368298	-426.6338750713648	1223.254664398923	602.2879581300042	-492.5299095975099	1200.500105387002	475.9139300058766	-478.3249113642945	nan	nan	nan	1135.462325142581	380.1894743847233	-439.4864940979348	1001.713744493478	420.6520877924475	-483.7248905970704	917.1193062653106	325.4665579048921	-437.0221126134453	815.1864929419532	352.7637891305399	-453.0515988139218	nan	nan	nan	776.9709236150395	193.5446168017596	-455.8632415394317	744.1308908238326	225.7242180682528	-482.9850910008817	786.0930526419355	408.1846427118418	-388.9951146697886	1252.586290689483	823.5754153933958	-125.0758754760254	1396.221403294598	744.8950510229928	-221.0506126702402	1314.358118683066	621.9046554445158	-154.5414503290748	1353.415562481581	498.9252223841195	-171.5619163970795	nan	nan	nan	1407.52785217783	400.6262713735888	-238.8946167325221	1342.036804302798	316.1830502144883	-173.5864367706689	1371.329000447193	180.8365885119182	-268.5147761691413	1313.712226859179	107.3552922731516	-232.2452328813807	nan	nan	nan	1470.071968628631	67.76007088845577	-246.0936723433689	1435.475895205643	35.17213765735777	-203.2174431345414	1239.698131349166	79.80597969424355	-288.8317869267042	
1879	147.508	1274.024771653158	1454.700716822401	-298.6583351274953	1148.174015218431	1184.14493196954	-328.3257376102732	1401.86058832251	1313.88539301882	-285.356656719978	1357.655728657487	1402.228527116703	-449.3022033503518	1324.208362420425	1380.055097485998	-135.9624329020264	1312.91830863982	908.3403513382968	-434.013916264803	1309.003434243095	918.6069430148975	-194.1642363094753	1111.664210360452	995.3253553681191	-341.1455068677623	1110.39550827995	994.9187808019946	-303.0271711957062	1268.384118572844	976.0416253970785	-487.0772530843839	1231.976633066984	982.0911916967727	-136.817505834617	1256.860139409544	778.8148657992593	-493.0741916777048	1317.585874038893	653.2444878770324	-427.5313973297786	1227.502684136459	599.4669683199587	-493.1123260977447	1206.685339788358	473.2853870837314	-479.1090636276862	nan	nan	nan	1141.744299943226	378.3311690321839	-440.0018724295979	1008.334909332331	419.6688728073624	-484.6891418703295	923.0011337071616	325.7341290879821	-437.3240816873795	821.3392499519746	353.9351827094442	-453.3914037049573	nan	nan	nan	782.9878045391666	194.8566403392006	-456.8601096645814	750.3202582569346	227.1356473047557	-484.0694390592753	791.8540449563728	409.3056952687236	-389.2722065195893	1252.54591575252	821.2328835684733	-124.959320783837	1397.213696418169	743.378215891729	-219.9008567588635	1313.971033257365	619.8000635606088	-154.6071477989117	1353.949759358315	497.1905371198599	-171.5856954660576	nan	nan	nan	1406.131157291531	398.3959212645034	-239.3492583668285	1339.295717829437	315.0903900253712	-174.1452861953113	1364.076390553295	179.3074045288018	-269.4035623424718	1304.693356945827	107.4011130082799	-232.954116389947	nan	nan	nan	1460.118786059232	65.7667310994858	-246.7851308432978	1424.739277853271	34.497090663105	-203.2980333601638	1229.374031676977	80.7446643994268	-289.2274943851673	
1880	147.512	1273.852859976241	1452.38558618469	-297.6302070975625	1147.466641127202	1181.539969002045	-327.8780227704138	1401.762483072135	1310.928607898997	-285.7466089488943	1356.659217931141	1399.786957669061	-449.516958858725	1325.328069976184	1376.21920018016	-135.4046607019179	1312.526233306664	904.0673514856109	-433.9648811778977	1308.417867084735	916.2422729457563	-193.7327449169308	1110.947263851461	992.0688621979214	-341.9622206587123	1109.709009249497	991.8783259151883	-303.8985523800369	1267.898360979776	971.284473164469	-487.7182672994044	1230.434609906463	979.5756096235618	-136.8329564679337	1258.97341413435	775.9267192283289	-492.9578575067304	1321.080345661121	651.7635106138052	-428.3021578640092	1231.823767212936	596.9435255292381	-493.6411344927159	1212.968982480221	470.9319328751474	-479.8219364520662	nan	nan	nan	1148.223622987098	376.6577594037699	-440.4227743351178	1015.120114104602	418.7002747099814	-485.6534087572416	929.1667324465404	325.9102062240273	-437.5651290919649	827.7378957265443	354.8785567162944	-453.6907417645687	nan	nan	nan	789.5190946861883	195.870477418058	-457.7908665077648	756.9858509001945	228.1920944741929	-485.1148086906306	797.7339633682279	410.1620730676897	-389.5399579692432	1252.200843951984	819.0160889736911	-124.8483825572615	1397.940352623967	741.6982765862763	-218.607089204584	1313.335425759335	617.7382671105088	-154.6132806064296	1354.234561076482	495.5069734752637	-171.5848298926412	nan	nan	nan	1404.4125675095	396.2526173570741	-239.7459526138794	1336.283469868143	314.1132317528597	-174.6459564006944	1356.579132271425	177.9883648801698	-270.1994521163501	1295.53078226889	107.6582977935515	-233.5711204794432	nan	nan	nan	1449.986983905002	64.20338896000339	-247.3682415267253	1413.941773764328	34.15602686967352	-203.3439662701404	1218.980914779898	81.67978370102234	-289.5459414538641	
1881	147.516	1273.734466113418	1450.266028511383	-296.5971070642756	1146.719979130875	1179.199726547152	-327.4518054120665	1401.622724155614	1308.19094624385	-286.2116381444276	1355.612069149165	1397.537191669149	-449.7588169856411	1326.518790967362	1372.56083561683	-134.9340600166973	1312.09874768431	900.0176783285116	-433.8985426275067	1307.77070890587	914.1410574119526	-193.2871885371365	1110.243022261877	989.1224064420337	-342.7643211394236	1109.034298665048	989.1507515053399	-304.7521713230877	1267.361439164936	966.7827878141901	-488.3301845523248	1228.846086138515	977.3549124045396	-136.8500592179892	1261.038429512508	773.3379454522545	-492.8380959108579	1324.612343799757	650.6017507348089	-428.9328077383357	1236.204078508926	594.7385458896898	-494.113482624354	1219.344092179577	468.8733408624028	-480.4587166875099	nan	nan	nan	1154.892881636589	375.1817747160522	-440.7478031447862	1022.055806902574	417.7644793768354	-486.5960060728194	935.6039894211135	325.9958096738095	-437.742043676811	834.3643112920554	355.5893925560283	-453.9442305335274	nan	nan	nan	796.5614532147692	196.5804080075046	-458.6505235462803	764.12224130037	228.8859797667985	-486.1156282650253	803.7119600028619	410.7424034458646	-389.7925943938505	1251.555860898194	816.9353766976628	-124.7553969215141	1398.391297290528	739.8572864988021	-217.2009894429227	1312.450255674831	615.7224516517322	-154.5690139616333	1354.210279386288	493.8500697431509	-171.56035123266	nan	nan	nan	1402.327143480953	394.1612098958801	-240.0731578982182	1332.943060681926	313.2146996629272	-175.0856072837412	1348.828952813365	176.8495870888883	-270.8964596297042	1286.21856134965	108.086326431531	-234.0915526223597	nan	nan	nan	1439.686596248412	63.01376198620591	-247.8369606709628	1403.087287202387	34.08091950608294	-203.3545793065515	1208.517076300094	82.59138383892807	-289.792378947188	
